<svg viewBox="0 0 167.58 117.5" xmlns="http://www.w3.org/2000/svg"><path d="m13.37.93h145.38a8.51 8.51 0 0 1 8.51 8.51v95.22a8.51 8.51 0 0 1 -8.51 8.51h-152.49a1.4 1.4 0 0 1 -1.4-1.4v-102.33a8.51 8.51 0 0 1 8.51-8.51z" fill="#637582" transform="matrix(.99999848 .00174533 -.00174533 .99999848 .1 -.15)"/><path d="m165.63 15.78-.14 88.47a11.89 11.89 0 0 1 -11.92 11.87l-79.37-.12c26-30.53 38.27-85.38 42.93-112.17l36.63.06a11.87 11.87 0 0 1 11.87 11.89z" fill="#455760"/><path d="m4.27 18.52h5.12v93.95h-5.12z" fill="#94a5af" transform="matrix(.99999848 .00174533 -.00174533 .99999848 .11 -.01)"/><path d="m164.51 9.59v9.71l-162.43-.3v-9.69a5.39 5.39 0 0 1 5.62-5.12l151.23.26a5.38 5.38 0 0 1 5.58 5.14z" fill="#ecebeb"/><circle cx="15.07" cy="11.26" fill="#3e3127" r="1.63"/><circle cx="21.76" cy="11.27" fill="#3e3127" r="1.63"/><circle cx="28.45" cy="11.28" fill="#3e3127" r="1.63"/><path d="m100.31 4.55-8.74 14.83-9.98-.01 8.73-14.83z" fill="#fff"/><path d="m123.67 4.59-8.73 14.83-10.01-.01 8.74-14.83z" fill="#fff"/><g fill="none" stroke-miterlimit="10"><rect height="112.24" rx="6" stroke="#3e3127" stroke-width="5" transform="matrix(.99999848 .00174533 -.00174533 .99999848 .1 -.14)" width="162.41" x="2.58" y="2.63"/><path d="m2.65 18.65 163.26.27" stroke="#3e3127" stroke-width="3"/><path d="m20.5 32.24 72.08.12" stroke="#ffc754" stroke-linecap="round" stroke-width="3"/><path d="m20.48 44.55 40.33.07" stroke="#a2fce2" stroke-linecap="round" stroke-width="3"/><path d="m20.46 56.86 47.74.08" stroke="#fff" stroke-linecap="round" stroke-width="3"/><path d="m72.98 44.64 5.42.01" stroke="#fff" stroke-linecap="round" stroke-width="3"/><path d="m79.3 56.96 10.71.02" stroke="#ffc754" stroke-linecap="round" stroke-width="3"/></g></svg>